<svg fill="none" height="24" viewBox="0 0 24 24" width="24" xmlns="http://www.w3.org/2000/svg"><path clip-rule="evenodd" d="m12 20c-2.12173 0-4.15656-.8429-5.65685-2.3431-1.5003-1.5003-2.34315-3.5352-2.34315-5.6569 0-2.12173.84285-4.15656 2.34315-5.65685 1.50029-1.5003 3.53512-2.34315 5.65685-2.34315 2.1217 0 4.1566.84285 5.6569 2.34315 1.5002 1.50029 2.3431 3.53512 2.3431 5.65685 0 2.1217-.8429 4.1566-2.3431 5.6569-1.5003 1.5002-3.5352 2.3431-5.6569 2.3431zm1.364-10.964-2.152 4.11-1.543-1.39c-.09764-.0879-.21162-.1556-.33545-.1994s-.25507-.0628-.38623-.0559-.25968.0396-.37821.0962-.22476.136-.31261.2336-.15562.2116-.19942.3354c-.0438.1239-.06279.2551-.05587.3863.00692.1311.0396.2597.09619.3782.05658.1185.13596.2247.2336.3126l2.5 2.25c.1133.102.2484.1768.395.2186s.3008.0495.4508.0226.2919-.0878.4149-.1779c.1229-.0902.2236-.2073.2943-.3423l2.75-5.25c.1231-.23498.1477-.50922.0686-.7624-.0791-.25317-.2556-.46454-.4906-.5876s-.5092-.14773-.7624-.06859-.4645.25561-.5876.49059z" fill="#000" fill-rule="evenodd"/></svg>